G04 (created by PCBNEW (2013-03-04 BZR 3984)-stable) date 5/29/2013 11:37:00 AM*
%MOIN*%
G04 Gerber Fmt 3.4, Leading zero omitted, Abs format*
%FSLAX34Y34*%
G01*
G70*
G90*
G04 APERTURE LIST*
%ADD10C,0.006*%
%ADD11C,0.0688976*%
%ADD12C,0.05*%
%ADD13C,0.027*%
%ADD14C,0.01*%
G04 APERTURE END LIST*
G54D10*
G54D11*
X29330Y-18464D03*
X29330Y-22322D03*
X23307Y-22677D03*
X24291Y-22677D03*
G54D12*
X27480Y-22598D03*
X26299Y-22598D03*
G54D13*
X24763Y-21496D03*
X22913Y-20629D03*
X23750Y-19750D03*
X22900Y-19750D03*
X27795Y-21259D03*
X26062Y-20078D03*
X24133Y-20078D03*
G54D14*
X23897Y-20629D02*
X24763Y-21496D01*
X22913Y-20629D02*
X23897Y-20629D01*
X22900Y-19750D02*
X23750Y-19750D01*
X26062Y-20078D02*
X26614Y-20078D01*
X26614Y-20078D02*
X27795Y-21259D01*
X24133Y-20078D02*
X26062Y-20078D01*
G54D10*
G36*
X30468Y-22806D02*
X30454Y-22876D01*
X30430Y-22911D01*
X30395Y-22935D01*
X30326Y-22948D01*
X29929Y-22948D01*
X29929Y-22415D01*
X29925Y-22312D01*
X29925Y-18346D01*
X29834Y-18128D01*
X29667Y-17960D01*
X29449Y-17870D01*
X29212Y-17869D01*
X28994Y-17960D01*
X28827Y-18127D01*
X28736Y-18345D01*
X28736Y-18582D01*
X28826Y-18800D01*
X28993Y-18968D01*
X29211Y-19058D01*
X29448Y-19059D01*
X29667Y-18968D01*
X29834Y-18801D01*
X29925Y-18583D01*
X29925Y-18346D01*
X29925Y-22312D01*
X29919Y-22178D01*
X29848Y-22008D01*
X29748Y-21975D01*
X29678Y-22046D01*
X29678Y-21904D01*
X29645Y-21804D01*
X29423Y-21723D01*
X29186Y-21734D01*
X29016Y-21804D01*
X28983Y-21904D01*
X29330Y-22252D01*
X29678Y-21904D01*
X29678Y-22046D01*
X29401Y-22322D01*
X29748Y-22670D01*
X29848Y-22637D01*
X29929Y-22415D01*
X29929Y-22948D01*
X29678Y-22948D01*
X29678Y-22740D01*
X29330Y-22393D01*
X29259Y-22464D01*
X29259Y-22322D01*
X28912Y-21975D01*
X28812Y-22008D01*
X28731Y-22230D01*
X28741Y-22466D01*
X28812Y-22637D01*
X28912Y-22670D01*
X29259Y-22322D01*
X29259Y-22464D01*
X28983Y-22740D01*
X29016Y-22840D01*
X29238Y-22921D01*
X29474Y-22911D01*
X29645Y-22840D01*
X29678Y-22740D01*
X29678Y-22948D01*
X28180Y-22948D01*
X28180Y-21183D01*
X28121Y-21042D01*
X28013Y-20933D01*
X27872Y-20874D01*
X27834Y-20874D01*
X26826Y-19866D01*
X26728Y-19801D01*
X26614Y-19778D01*
X26307Y-19778D01*
X26281Y-19752D01*
X26139Y-19693D01*
X25986Y-19693D01*
X25845Y-19752D01*
X25818Y-19778D01*
X24378Y-19778D01*
X24352Y-19752D01*
X24210Y-19693D01*
X24135Y-19693D01*
X24135Y-19673D01*
X24076Y-19532D01*
X23968Y-19423D01*
X23826Y-19365D01*
X23673Y-19364D01*
X23532Y-19423D01*
X23505Y-19450D01*
X23144Y-19450D01*
X23118Y-19423D01*
X22976Y-19365D01*
X22823Y-19364D01*
X22682Y-19423D01*
X22573Y-19531D01*
X22515Y-19673D01*
X22514Y-19826D01*
X22573Y-19967D01*
X22681Y-20076D01*
X22823Y-20134D01*
X22976Y-20135D01*
X23117Y-20076D01*
X23144Y-20050D01*
X23505Y-20050D01*
X23531Y-20076D01*
X23673Y-20134D01*
X23748Y-20134D01*
X23748Y-20154D01*
X23807Y-20296D01*
X23840Y-20329D01*
X23157Y-20329D01*
X23131Y-20303D01*
X22990Y-20244D01*
X22837Y-20244D01*
X22695Y-20303D01*
X22587Y-20411D01*
X22528Y-20553D01*
X22528Y-20706D01*
X22586Y-20847D01*
X22695Y-20956D01*
X22836Y-21014D01*
X22989Y-21014D01*
X23131Y-20956D01*
X23157Y-20929D01*
X23773Y-20929D01*
X24378Y-21535D01*
X24378Y-21572D01*
X24437Y-21713D01*
X24545Y-21822D01*
X24686Y-21880D01*
X24840Y-21881D01*
X24981Y-21822D01*
X25089Y-21714D01*
X25148Y-21572D01*
X25148Y-21419D01*
X25090Y-21278D01*
X24982Y-21169D01*
X24840Y-21111D01*
X24803Y-21111D01*
X24155Y-20463D01*
X24210Y-20463D01*
X24351Y-20405D01*
X24378Y-20378D01*
X25818Y-20378D01*
X25844Y-20404D01*
X25986Y-20463D01*
X26139Y-20463D01*
X26280Y-20405D01*
X26307Y-20378D01*
X26489Y-20378D01*
X27410Y-21299D01*
X27410Y-21336D01*
X27468Y-21477D01*
X27576Y-21586D01*
X27718Y-21644D01*
X27871Y-21644D01*
X28013Y-21586D01*
X28121Y-21478D01*
X28180Y-21336D01*
X28180Y-21183D01*
X28180Y-22948D01*
X27837Y-22948D01*
X27903Y-22882D01*
X27980Y-22698D01*
X27980Y-22499D01*
X27904Y-22315D01*
X27763Y-22174D01*
X27580Y-22098D01*
X27381Y-22098D01*
X27197Y-22174D01*
X27056Y-22314D01*
X26980Y-22498D01*
X26980Y-22697D01*
X27056Y-22881D01*
X27123Y-22948D01*
X26655Y-22948D01*
X26722Y-22882D01*
X26799Y-22698D01*
X26799Y-22499D01*
X26723Y-22315D01*
X26582Y-22174D01*
X26399Y-22098D01*
X26200Y-22098D01*
X26016Y-22174D01*
X25875Y-22314D01*
X25799Y-22498D01*
X25799Y-22697D01*
X25875Y-22881D01*
X25942Y-22948D01*
X24822Y-22948D01*
X24885Y-22795D01*
X24885Y-22559D01*
X24795Y-22340D01*
X24628Y-22173D01*
X24410Y-22082D01*
X24173Y-22082D01*
X23955Y-22172D01*
X23787Y-22339D01*
X23783Y-22349D01*
X23725Y-22329D01*
X23654Y-22400D01*
X23654Y-22259D01*
X23621Y-22159D01*
X23399Y-22078D01*
X23163Y-22088D01*
X22992Y-22159D01*
X22959Y-22259D01*
X23307Y-22606D01*
X23654Y-22259D01*
X23654Y-22400D01*
X23377Y-22677D01*
X23383Y-22682D01*
X23312Y-22753D01*
X23307Y-22747D01*
X23301Y-22753D01*
X23230Y-22682D01*
X23236Y-22677D01*
X22888Y-22329D01*
X22788Y-22362D01*
X22708Y-22584D01*
X22718Y-22821D01*
X22771Y-22948D01*
X20264Y-22948D01*
X20194Y-22935D01*
X20159Y-22911D01*
X20135Y-22876D01*
X20122Y-22807D01*
X20122Y-17980D01*
X20135Y-17911D01*
X20159Y-17876D01*
X20194Y-17852D01*
X20264Y-17838D01*
X30326Y-17838D01*
X30395Y-17852D01*
X30430Y-17875D01*
X30454Y-17911D01*
X30468Y-17980D01*
X30468Y-22806D01*
X30468Y-22806D01*
G37*
G54D14*
X30468Y-22806D02*
X30454Y-22876D01*
X30430Y-22911D01*
X30395Y-22935D01*
X30326Y-22948D01*
X29929Y-22948D01*
X29929Y-22415D01*
X29925Y-22312D01*
X29925Y-18346D01*
X29834Y-18128D01*
X29667Y-17960D01*
X29449Y-17870D01*
X29212Y-17869D01*
X28994Y-17960D01*
X28827Y-18127D01*
X28736Y-18345D01*
X28736Y-18582D01*
X28826Y-18800D01*
X28993Y-18968D01*
X29211Y-19058D01*
X29448Y-19059D01*
X29667Y-18968D01*
X29834Y-18801D01*
X29925Y-18583D01*
X29925Y-18346D01*
X29925Y-22312D01*
X29919Y-22178D01*
X29848Y-22008D01*
X29748Y-21975D01*
X29678Y-22046D01*
X29678Y-21904D01*
X29645Y-21804D01*
X29423Y-21723D01*
X29186Y-21734D01*
X29016Y-21804D01*
X28983Y-21904D01*
X29330Y-22252D01*
X29678Y-21904D01*
X29678Y-22046D01*
X29401Y-22322D01*
X29748Y-22670D01*
X29848Y-22637D01*
X29929Y-22415D01*
X29929Y-22948D01*
X29678Y-22948D01*
X29678Y-22740D01*
X29330Y-22393D01*
X29259Y-22464D01*
X29259Y-22322D01*
X28912Y-21975D01*
X28812Y-22008D01*
X28731Y-22230D01*
X28741Y-22466D01*
X28812Y-22637D01*
X28912Y-22670D01*
X29259Y-22322D01*
X29259Y-22464D01*
X28983Y-22740D01*
X29016Y-22840D01*
X29238Y-22921D01*
X29474Y-22911D01*
X29645Y-22840D01*
X29678Y-22740D01*
X29678Y-22948D01*
X28180Y-22948D01*
X28180Y-21183D01*
X28121Y-21042D01*
X28013Y-20933D01*
X27872Y-20874D01*
X27834Y-20874D01*
X26826Y-19866D01*
X26728Y-19801D01*
X26614Y-19778D01*
X26307Y-19778D01*
X26281Y-19752D01*
X26139Y-19693D01*
X25986Y-19693D01*
X25845Y-19752D01*
X25818Y-19778D01*
X24378Y-19778D01*
X24352Y-19752D01*
X24210Y-19693D01*
X24135Y-19693D01*
X24135Y-19673D01*
X24076Y-19532D01*
X23968Y-19423D01*
X23826Y-19365D01*
X23673Y-19364D01*
X23532Y-19423D01*
X23505Y-19450D01*
X23144Y-19450D01*
X23118Y-19423D01*
X22976Y-19365D01*
X22823Y-19364D01*
X22682Y-19423D01*
X22573Y-19531D01*
X22515Y-19673D01*
X22514Y-19826D01*
X22573Y-19967D01*
X22681Y-20076D01*
X22823Y-20134D01*
X22976Y-20135D01*
X23117Y-20076D01*
X23144Y-20050D01*
X23505Y-20050D01*
X23531Y-20076D01*
X23673Y-20134D01*
X23748Y-20134D01*
X23748Y-20154D01*
X23807Y-20296D01*
X23840Y-20329D01*
X23157Y-20329D01*
X23131Y-20303D01*
X22990Y-20244D01*
X22837Y-20244D01*
X22695Y-20303D01*
X22587Y-20411D01*
X22528Y-20553D01*
X22528Y-20706D01*
X22586Y-20847D01*
X22695Y-20956D01*
X22836Y-21014D01*
X22989Y-21014D01*
X23131Y-20956D01*
X23157Y-20929D01*
X23773Y-20929D01*
X24378Y-21535D01*
X24378Y-21572D01*
X24437Y-21713D01*
X24545Y-21822D01*
X24686Y-21880D01*
X24840Y-21881D01*
X24981Y-21822D01*
X25089Y-21714D01*
X25148Y-21572D01*
X25148Y-21419D01*
X25090Y-21278D01*
X24982Y-21169D01*
X24840Y-21111D01*
X24803Y-21111D01*
X24155Y-20463D01*
X24210Y-20463D01*
X24351Y-20405D01*
X24378Y-20378D01*
X25818Y-20378D01*
X25844Y-20404D01*
X25986Y-20463D01*
X26139Y-20463D01*
X26280Y-20405D01*
X26307Y-20378D01*
X26489Y-20378D01*
X27410Y-21299D01*
X27410Y-21336D01*
X27468Y-21477D01*
X27576Y-21586D01*
X27718Y-21644D01*
X27871Y-21644D01*
X28013Y-21586D01*
X28121Y-21478D01*
X28180Y-21336D01*
X28180Y-21183D01*
X28180Y-22948D01*
X27837Y-22948D01*
X27903Y-22882D01*
X27980Y-22698D01*
X27980Y-22499D01*
X27904Y-22315D01*
X27763Y-22174D01*
X27580Y-22098D01*
X27381Y-22098D01*
X27197Y-22174D01*
X27056Y-22314D01*
X26980Y-22498D01*
X26980Y-22697D01*
X27056Y-22881D01*
X27123Y-22948D01*
X26655Y-22948D01*
X26722Y-22882D01*
X26799Y-22698D01*
X26799Y-22499D01*
X26723Y-22315D01*
X26582Y-22174D01*
X26399Y-22098D01*
X26200Y-22098D01*
X26016Y-22174D01*
X25875Y-22314D01*
X25799Y-22498D01*
X25799Y-22697D01*
X25875Y-22881D01*
X25942Y-22948D01*
X24822Y-22948D01*
X24885Y-22795D01*
X24885Y-22559D01*
X24795Y-22340D01*
X24628Y-22173D01*
X24410Y-22082D01*
X24173Y-22082D01*
X23955Y-22172D01*
X23787Y-22339D01*
X23783Y-22349D01*
X23725Y-22329D01*
X23654Y-22400D01*
X23654Y-22259D01*
X23621Y-22159D01*
X23399Y-22078D01*
X23163Y-22088D01*
X22992Y-22159D01*
X22959Y-22259D01*
X23307Y-22606D01*
X23654Y-22259D01*
X23654Y-22400D01*
X23377Y-22677D01*
X23383Y-22682D01*
X23312Y-22753D01*
X23307Y-22747D01*
X23301Y-22753D01*
X23230Y-22682D01*
X23236Y-22677D01*
X22888Y-22329D01*
X22788Y-22362D01*
X22708Y-22584D01*
X22718Y-22821D01*
X22771Y-22948D01*
X20264Y-22948D01*
X20194Y-22935D01*
X20159Y-22911D01*
X20135Y-22876D01*
X20122Y-22807D01*
X20122Y-17980D01*
X20135Y-17911D01*
X20159Y-17876D01*
X20194Y-17852D01*
X20264Y-17838D01*
X30326Y-17838D01*
X30395Y-17852D01*
X30430Y-17875D01*
X30454Y-17911D01*
X30468Y-17980D01*
X30468Y-22806D01*
M02*
